<svg width="47" height="48" viewBox="0 0 47 48" fill="none" xmlns="http://www.w3.org/2000/svg">
<path d="M25.8973 0.447046C25.7118 0.511719 25.4242 0.668784 25.2665 0.788892C25.1181 0.909 22.2886 4.95571 18.9861 9.78775L12.9839 18.5649L11.2862 18.5926L9.58858 18.6111L9.63496 18.3154C9.66279 18.1491 9.83905 16.4953 10.0153 14.6383C10.1916 12.7812 10.3586 11.0905 10.3864 10.878C10.442 10.4992 10.4699 10.4714 11.1007 10.1388C11.7315 9.80623 12.6221 9.04862 12.9932 8.51276L13.1787 8.24482L15.8597 8.522C17.678 8.69754 18.6335 8.76221 18.8005 8.70678C19.32 8.53124 19.3571 7.73668 18.8562 7.52418C18.7356 7.46874 17.4183 7.31168 15.9154 7.16385C12.8911 6.87744 12.6592 6.88668 12.2139 7.37635C12.0655 7.53342 11.7315 7.89374 11.4625 8.18015C11.1842 8.48504 10.7853 8.79917 10.4606 8.95623C9.63496 9.35351 9.34738 9.60297 9.19895 10.0372C9.10618 10.2774 8.89281 12.0883 8.65161 14.5182L8.25271 18.6111H7.8167H7.37141L7.41779 18.26C7.44562 18.0752 7.74248 15.1834 8.06717 11.8388C8.40114 8.48504 8.71655 5.67636 8.76294 5.57473C8.90209 5.31604 9.16184 5.21441 9.66279 5.21441C9.90399 5.21441 12.3809 5.44538 15.1547 5.72256C19.6262 6.16603 20.2384 6.20299 20.4611 6.09212C20.9064 5.86114 20.8878 5.13126 20.4332 4.93724C20.3126 4.89104 18.6799 4.70626 16.7874 4.52148C14.9042 4.3367 12.4922 4.10572 11.4254 3.99485C10.3493 3.89322 9.31955 3.83779 9.0969 3.8655C8.25271 3.99485 7.52911 4.7155 7.36213 5.61169C7.30647 5.87962 7.04671 8.31874 6.77769 11.035L6.29529 15.9779L5.1264 16.0334C4.1245 16.0703 3.89258 16.1165 3.51223 16.3105C2.72369 16.7171 2.2784 17.4839 2.26912 18.4725C2.25985 18.916 2.24129 18.9437 1.82383 19.2116C1.59191 19.3594 1.25795 19.6643 1.09096 19.8861C0.469412 20.6991 0.497242 19.9877 0.525073 33.3104L0.552903 45.3582L0.775548 45.8386C1.04458 46.4484 1.80528 47.1598 2.40828 47.4C2.86284 47.5756 3.34524 47.5756 22.4463 47.5756H42.0205L42.5029 47.3538C43.0781 47.0951 43.7646 46.4022 44.0429 45.7924C44.2377 45.3767 44.247 45.2288 44.2748 41.8196L44.3026 38.2903H44.6459C45.4437 38.2903 46.1487 37.893 46.3899 37.3017C46.492 37.0615 46.5198 36.193 46.5198 33.1164C46.5198 29.43 46.5105 29.2083 46.3343 28.8664C46.056 28.3213 45.6663 28.0904 44.9242 28.0534L44.2934 28.0164V24.6719C44.2934 21.8632 44.2655 21.2442 44.1449 20.8284C43.9779 20.2741 43.5883 19.6458 43.2265 19.3687C43.0132 19.2024 42.9946 19.1192 42.9946 18.5002C42.9946 17.6779 42.7163 17.0219 42.1782 16.5785C41.7886 16.2643 41.1021 16.0241 40.5641 16.0241H40.2023L41.2877 14.4442C41.8907 13.5665 42.4287 12.6703 42.5029 12.4301C42.7256 11.691 42.4844 10.8133 41.9092 10.2867C41.7701 10.1573 40.5455 9.29808 39.1911 8.38341C37.8367 7.46874 34.7289 5.35299 32.2798 3.68996C29.8307 2.02693 27.7063 0.60411 27.5579 0.530198C27.1775 0.336177 26.3241 0.289982 25.8973 0.447046ZM27.0477 1.80519C27.6135 2.10084 40.7589 11.0905 40.9815 11.3214C41.3897 11.7557 41.3248 11.9774 40.4249 13.3078C39.9703 13.9638 38.987 15.4236 38.217 16.5508L36.8255 18.6018L36.2874 18.6111H35.7586L36.844 17.0312C37.4378 16.1535 37.9758 15.285 38.05 15.0817C38.1892 14.666 38.1335 14.3519 37.7439 13.4372C37.5305 12.929 37.4841 12.6888 37.4656 11.8388C37.447 11.0165 37.4006 10.7856 37.2429 10.5361C37.1131 10.3144 35.9627 9.48286 33.291 7.672C31.2222 6.26766 29.4318 5.07582 29.3019 5.02963C28.8938 4.87256 28.467 4.928 27.7156 5.23289C27.0848 5.49158 26.8714 5.52854 25.9994 5.54701C24.8305 5.57473 24.4965 5.69484 24.0976 6.25842C23.9399 6.47092 22.0103 9.28884 19.8024 12.5133C17.5945 15.7377 15.7391 18.4355 15.6835 18.5002C15.6093 18.5741 15.3959 18.6111 15.0898 18.5926L14.6259 18.5649L20.2755 10.2959C23.3833 5.75027 26.0179 1.95301 26.12 1.86062C26.3426 1.68508 26.7693 1.65736 27.0477 1.80519ZM32.5581 8.79917L36.0833 11.1921L36.139 12.1991C36.1854 12.9845 36.2503 13.3448 36.4451 13.8529C36.5843 14.204 36.7049 14.5644 36.7142 14.6383C36.7234 14.7214 36.1483 15.6453 35.4339 16.6986L34.1352 18.6018L32.9756 18.6111H31.8067L31.7046 17.992C31.5562 17.1421 30.9532 15.9779 30.3224 15.2942C29.6545 14.5736 28.9401 14.1116 27.9846 13.779C26.0458 13.1138 23.7265 13.6589 22.2979 15.1187C21.5001 15.9317 20.8971 17.0866 20.7487 18.0844L20.6837 18.5649L18.9861 18.5926C17.6224 18.6111 17.2977 18.5926 17.3533 18.5002C17.3997 18.4355 19.1994 15.7931 21.3609 12.6241L25.2943 6.87744H26.1664C26.8343 6.87744 27.1961 6.82201 27.7527 6.64646C28.1516 6.51712 28.5412 6.37853 28.6062 6.33234C28.6897 6.2769 28.8103 6.2769 28.8845 6.3231C28.968 6.36929 30.6193 7.47798 32.5581 8.79917ZM27.2703 14.9616C28.0217 15.1649 28.6433 15.516 29.2092 16.0796C29.7936 16.6616 30.1461 17.2806 30.3224 18.0382L30.4523 18.6111H26.2406H22.0196L22.0845 18.26C22.5113 15.9225 24.9511 14.3611 27.2703 14.9616ZM6.1283 17.6964C6.10047 17.8535 6.07264 18.1306 6.07264 18.2969V18.6111H4.86665H3.66066V18.2785C3.66066 18.0382 3.73487 17.8812 3.92969 17.6779C4.19871 17.4192 4.22655 17.41 5.19134 17.41H6.19324L6.1283 17.6964ZM41.2598 17.604C41.5289 17.8073 41.7793 18.4817 41.6402 18.5926C41.5938 18.6295 40.8609 18.648 40.0074 18.6295L38.4582 18.6018L38.8478 18.0105L39.2375 17.41H40.128C40.8887 17.41 41.0557 17.4377 41.2598 17.604ZM42.2246 20.3295C42.8091 20.7915 42.9018 21.0779 42.9018 22.3714V23.5078H22.3999H1.89805V22.3529C1.89805 21.5306 1.93516 21.1149 2.02793 20.9393C2.19491 20.6159 2.62165 20.2187 2.91851 20.0986C3.06694 20.0431 9.79267 20.0154 22.5113 20.0246L41.8628 20.0431L42.2246 20.3295ZM42.9018 26.4643V28.0349H39.4044C36.6028 28.0349 35.7772 28.0626 35.3041 28.1735C33.6806 28.5615 32.2891 29.7996 31.6768 31.4072C31.4171 32.1001 31.3243 33.5137 31.4913 34.2343C31.9087 36.0267 33.2817 37.4865 35.1093 38.0686C35.5453 38.2071 36.1204 38.2349 39.2653 38.2718L42.9018 38.3088V39.8702V41.4316H26.222C9.61641 41.4316 9.53292 41.4316 9.36593 41.6164C9.15257 41.8566 9.15257 42.3001 9.36593 42.5403C9.53292 42.725 9.61641 42.725 26.222 42.725H42.9018V43.8984C42.9018 44.9517 42.874 45.118 42.6885 45.4506C42.5679 45.6538 42.3174 45.9033 42.1133 46.0234L41.7422 46.2359H22.4185C0.886871 46.2359 2.72369 46.2913 2.19491 45.6076C1.95371 45.2935 1.94443 45.2288 1.9166 44L1.8795 42.725H3.83692C5.67374 42.725 5.80361 42.7158 5.97987 42.5403C6.08192 42.4386 6.16541 42.2354 6.16541 42.0783C6.16541 41.9212 6.08192 41.718 5.97987 41.6164C5.80361 41.4408 5.67374 41.4316 3.84619 41.4316H1.89805V33.1626V24.8936H22.3999H42.9018V26.4643ZM45.1097 33.1349L45.1283 36.9044H40.6104C37.9573 36.9044 35.9163 36.8582 35.6844 36.812C34.228 36.4702 33.0591 35.2414 32.7808 33.7539C32.4097 31.7305 33.9125 29.698 35.972 29.43C36.2874 29.3838 38.4675 29.3561 40.8145 29.3653L45.0819 29.3746L45.1097 33.1349Z" fill="#4086F4"/>
<path d="M35.8516 30.5203C34.6827 30.8806 33.8107 32.1648 33.9313 33.3474C34.0797 34.8164 35.193 35.8327 36.6309 35.8327C39.0243 35.842 40.2396 33.1349 38.6811 31.2871C38.5512 31.1301 38.1894 30.8714 37.874 30.7235C37.4009 30.4833 37.1968 30.4371 36.6958 30.4464C36.3619 30.4464 35.9815 30.4833 35.8516 30.5203ZM37.1875 31.8599C38.1616 32.2665 38.31 33.6246 37.4473 34.2621C37.0947 34.53 36.3433 34.5577 35.963 34.3268C35.026 33.7355 35.0816 32.3496 36.0743 31.9061C36.5288 31.7029 36.7793 31.6936 37.1875 31.8599Z" fill="#4086F4"/>
</svg>
